<?xml version="1.0" ?><!DOCTYPE svg  PUBLIC '-//W3C//DTD SVG 1.0//EN'  'http://www.w3.org/TR/2001/REC-SVG-20010904/DTD/svg10.dtd'><svg height="64px" style="shape-rendering:geometricPrecision; text-rendering:geometricPrecision; image-rendering:optimizeQuality; fill-rule:evenodd; clip-rule:evenodd" version="1.0" viewBox="0 0 9674 9661" width="64px" xml:space="preserve" xmlns="http://www.w3.org/2000/svg" xmlns:xlink="http://www.w3.org/1999/xlink"><defs><style type="text/css">
   <![CDATA[
    .fil0 {fill:#000000;fill-rule:nonzero}
   ]]>
  </style></defs><g id="Layer_x0020_1"><path class="fil0" d="M6641 6165l0 3345 0 151 -151 0 -6339 0 -150 0 0 -151 0 -9359 0 -151 150 0 4528 0 63 0 44 44 1811 1811 44 44 0 63 0 1523 516 -878 76 -129 999 -1700c145,-246 393,-310 633,-260l1 0c86,18 171,52 249,98 78,45 149,103 206,169l1 0c131,151 199,344 141,544 147,113 338,354 96,765l-994 1692c-21,36 -55,60 -92,69l0 0 -207 54c-80,21 -163,-27 -183,-108 -21,-80 27,-163 108,-183l147 -38 962 -1638c94,-161 66,-267 18,-331l-914 1555 -1763 3000zm-1771 1051l-185 939 730 -618 -545 -320zm-564 1303l309 -1569 1 0c3,-16 9,-32 18,-47l2 -4 1703 -2899 0 -1886 -1660 0c-83,0 -151,-68 -151,-151l0 -4 0 -1656 -4227 0 0 9057 6038 0 0 -2680 -529 900 -2 3 -2 3c-9,16 -21,31 -35,44l-1217 1031c-34,30 -81,45 -129,36 -82,-16 -135,-95 -119,-177zm663 -1594l652 383 2448 -4166 -652 -383 -2447 4166zm2600 -4425l652 383 917 -1561 2 -3 7 -12 1 -1c62,-112 27,-232 -53,-323l0 0c-37,-42 -82,-79 -132,-108 -49,-29 -104,-51 -159,-62l0 0c-121,-25 -245,3 -312,117l-923 1571zm-4248 6406l1968 0 0 302 -1968 0 0 -302zm-2415 -4528l3240 0 0 302 -3240 0 0 -302zm0 -604l4830 0 0 302 -4830 0 0 -302zm0 -604l4830 0 0 302 -4830 0 0 -302zm0 -604l4830 0 0 302 -4830 0 0 -302zm5220 -755l-1296 -1296 0 1296 1296 0z"/></g></svg>