<?xml version="1.0" encoding="UTF-8" standalone="no"?>
<!DOCTYPE svg PUBLIC "-//W3C//DTD SVG 1.1//EN" "http://www.w3.org/Graphics/SVG/1.1/DTD/svg11.dtd">
<svg version="1.1" xmlns="http://www.w3.org/2000/svg" xmlns:xlink="http://www.w3.org/1999/xlink" preserveAspectRatio="xMidYMid meet" viewBox="40 25.000000000000004 85 80"><defs><path d="M89.53 54.88C88.88 54.26 83.64 49.36 82.99 48.75C82.94 48.72 82.9 48.68 82.86 48.63C82.58 48.37 80.34 46.27 80.06 46.01C80.01 45.98 79.97 45.94 79.93 45.89C79.63 45.61 78.11 44.19 75.38 41.63C66.88 49.58 62.16 53.99 61.22 54.88C60.94 55.14 60.49 55.14 60.21 54.88C59.93 54.61 59.93 54.19 60.21 53.93C61.67 52.57 73.33 41.66 74.78 40.29C74.81 40.26 74.82 40.22 74.85 40.19C75 40.06 75.19 40 75.38 40C75.57 40 75.76 40.06 75.9 40.19C75.93 40.22 75.95 40.26 75.97 40.29C76.22 40.53 77.49 41.71 79.77 43.85C79.77 42.77 79.77 42.17 79.77 42.05C79.77 42.05 79.77 42.05 79.77 42.05C79.77 41.68 80.1 41.37 80.5 41.37C80.8 41.37 83.14 41.37 83.43 41.37C83.63 41.37 83.82 41.45 83.95 41.57C84.08 41.69 84.16 41.86 84.16 42.05C84.16 42.45 84.16 44.42 84.16 47.96C87.99 51.54 90.12 53.53 90.55 53.93C90.82 54.19 90.82 54.61 90.55 54.88C90.27 55.14 89.81 55.14 89.53 54.88ZM81.23 42.74L81.23 45.22L82.7 46.59L82.7 42.74L81.23 42.74ZM65.86 54.39C65.86 55.69 65.86 66.1 65.86 67.4C65.86 68.16 66.51 68.77 67.32 68.77C67.62 68.77 69.08 68.77 71.72 68.77L71.72 68.77C71.72 63.43 71.72 60.46 71.72 59.87C71.72 59.49 72.04 59.18 72.45 59.18C73.03 59.18 77.72 59.18 78.31 59.18C78.71 59.18 79.04 59.49 79.04 59.87C79.04 60.46 79.04 63.43 79.04 68.77L79.04 68.77C81.67 68.77 83.14 68.77 83.43 68.77C84.24 68.77 84.9 68.16 84.9 67.4C84.9 66.1 84.9 55.69 84.9 54.39C84.9 54.01 85.22 53.7 85.63 53.7C86.03 53.7 86.36 54.01 86.36 54.39C86.36 55.69 86.36 66.1 86.36 67.4C86.36 68.92 85.05 70.14 83.43 70.14C81.82 70.14 68.93 70.14 67.32 70.14C65.7 70.14 64.39 68.92 64.39 67.4C64.39 66.1 64.39 55.69 64.39 54.39C64.39 54.01 64.72 53.7 65.13 53.7C65.53 53.7 65.86 54.01 65.86 54.39ZM77.57 60.55L73.18 60.55L73.18 68.77L73.18 68.77L77.57 68.77L77.57 68.77L77.57 60.55Z" id="jxCILswvqJ"></path><path d="M105.21 75C102.57 79.09 99.09 82.58 95 85.21C96.77 86.98 110.91 101.12 112.67 102.88C115.5 105.71 120.07 105.71 122.88 102.88C125.71 100.07 125.71 95.5 122.88 92.67C119.35 89.14 106.98 76.77 105.21 75Z" id="WntkMnA9Z0"></path><path d="M75 25C55.67 25 40 39.55 40 57.5C40 75.45 55.67 90 75 90C83.6 90 91.48 87.12 97.57 82.34C105.17 76.38 110 67.46 110 57.5C110 39.55 94.33 25 75 25ZM48.75 57.5C48.75 44.06 60.52 33.13 75 33.13C89.48 33.13 101.25 44.06 101.25 57.5C101.25 70.94 89.48 81.88 75 81.88C60.52 81.88 48.75 70.94 48.75 57.5Z" id="O85aTqN4q9"></path></defs><g visibility="inherit"><g><use xlink:href="#jxCILswvqJ" opacity="1" fill="#000000" fill-opacity="1"></use><g><use xlink:href="#jxCILswvqJ" opacity="1" fill-opacity="0" stroke="#000000" stroke-width="1" stroke-opacity="0"></use></g></g><g><use xlink:href="#WntkMnA9Z0" opacity="1" fill="#000000" fill-opacity="1"></use><g><use xlink:href="#WntkMnA9Z0" opacity="1" fill-opacity="0" stroke="#000000" stroke-width="1" stroke-opacity="0"></use></g></g><g><use xlink:href="#O85aTqN4q9" opacity="1" fill="#000000" fill-opacity="1"></use><g><use xlink:href="#O85aTqN4q9" opacity="1" fill-opacity="0" stroke="#000000" stroke-width="1" stroke-opacity="0"></use></g></g></g></svg>