<?xml version="1.0" encoding="UTF-8" standalone="no"?>
<!DOCTYPE svg PUBLIC "-//W3C//DTD SVG 1.1//EN" "http://www.w3.org/Graphics/SVG/1.1/DTD/svg11.dtd">
<svg version="1.1" xmlns="http://www.w3.org/2000/svg" xmlns:xlink="http://www.w3.org/1999/xlink" width="48" height="48" preserveAspectRatio="xMidYMid meet" viewBox="109.99999999999997 53.999999999999986 34.000000000000085 46.00000000000003"><defs><path d="M114 100C111.79 100 110 98.21 110 96C110 92.5 110 64.5 110 61C110 58.79 111.79 57 114 57C114.2 57 115.2 57 117 57C117 57 117 57 117 57C117.55 57 118 57.45 118 58C118 58.55 117.55 59 117 59C117 59 117 59 117 59C115.2 59 114.2 59 114 59C112.9 59 112 59.9 112 61C112 64.5 112 92.5 112 96C112 97.1 112.9 98 114 98C116.6 98 137.4 98 140 98C141.1 98 142 97.1 142 96C142 92.5 142 64.5 142 61C142 59.9 141.1 59 140 59C139.8 59 138.8 59 137 59C137 59 137 59 137 59C136.45 59 136 58.55 136 58C136 57.45 136.45 57 137 57C137 57 137 57 137 57C137.3 57 139.7 57 140 57C142.21 57 144 58.79 144 61C144 64.5 144 92.5 144 96C144 98.21 142.21 100 140 100C134.8 100 116.6 100 114 100ZM137 63C135 63 119 63 117 63C116.45 63 116 62.55 116 62C116 61.45 116.45 61 117 61C117 61 118.13 60.87 119 60C119.2 59.8 120.8 58.2 121 58C121 58 121.78 57 123 57C123.1 57 123.9 57 124 57C124 55.34 125.34 54 127 54C128.66 54 130 55.34 130 57C130.1 57 130.9 57 131 57C132.31 57 133 58 133 58C133.2 58.2 134.8 59.8 135 60C135.88 60.87 137 61 137 61C137.55 61 138 61.45 138 62C138 62.55 137.55 63 137 63ZM126 57C126.2 57 127.8 57 128 57C128 56.45 127.55 56 127 56C126.45 56 126 56.45 126 57ZM130.55 59C129.84 59 124.16 59 123.46 59C122.32 59 121.64 60 121.64 60C121.58 60.07 121.27 60.4 120.73 61L133.27 61L132.36 60C131.91 59.33 131.3 59 130.55 59Z" id="XAR12rhCRh"></path><path d="M127.91 88.97C127.91 89.17 127.91 90.18 127.91 92L125 91.4C125 90.08 125 89.35 125 89.2C123.03 89.12 121.12 88.56 120 87.94C120.09 87.59 120.79 84.84 120.88 84.5C122.11 85.17 123.85 85.8 125.76 85.8C127.47 85.8 128.61 85.12 128.61 83.97C128.61 82.85 127.67 82.15 125.47 81.41C122.32 80.35 120.18 78.89 120.18 76.03C120.18 73.41 122 71.38 125.14 70.8C125.14 70.61 125.14 69.68 125.14 68L128.03 68.7C128.03 69.83 128.03 70.46 128.03 70.59C129.97 70.65 131.29 71.08 132.32 71.56C132.23 71.89 131.53 74.55 131.44 74.88C130.7 74.53 129.32 73.85 127.2 73.85C125.29 73.85 124.67 74.7 124.67 75.53C124.67 76.47 125.7 77.12 128.23 78.03C131.73 79.26 133.11 80.88 133.11 83.56C133.11 86.18 131.29 88.41 127.91 88.97Z" id="n3jGvSTcIf"></path></defs><g visibility="inherit"><g><use xlink:href="#XAR12rhCRh" opacity="1" fill="#000000" fill-opacity="1"></use><g><use xlink:href="#XAR12rhCRh" opacity="1" fill-opacity="0" stroke="#000000" stroke-width="1" stroke-opacity="0"></use></g></g><g><use xlink:href="#n3jGvSTcIf" opacity="1" fill="#030203" fill-opacity="1"></use><g><use xlink:href="#n3jGvSTcIf" opacity="1" fill-opacity="0" stroke="#000000" stroke-width="1" stroke-opacity="0"></use></g></g></g></svg>