<?xml version="1.0" encoding="UTF-8" standalone="no"?>
<!DOCTYPE svg PUBLIC "-//W3C//DTD SVG 1.1//EN" "http://www.w3.org/Graphics/SVG/1.1/DTD/svg11.dtd">
<svg version="1.1" xmlns="http://www.w3.org/2000/svg" xmlns:xlink="http://www.w3.org/1999/xlink" preserveAspectRatio="xMidYMid meet" viewBox="118.99974999999999 80.00000000000001 61.00024999999995 60.00000000000004"><defs><path d="M149.02 124.95C148.93 124.92 148.84 124.87 148.77 124.8C148.11 124.19 142.83 119.32 142.17 118.71C142.12 118.67 142.08 118.64 142.05 118.59C141.76 118.33 139.5 116.24 139.22 115.98C139.17 115.95 139.13 115.91 139.09 115.87C138.79 115.58 137.26 114.17 134.5 111.62C125.94 119.53 121.18 123.93 120.23 124.8C119.95 125.06 119.49 125.06 119.21 124.8C118.93 124.54 118.93 124.12 119.21 123.86C120.68 122.51 132.43 111.65 133.9 110.29C133.93 110.26 133.94 110.22 133.97 110.19C134.12 110.06 134.31 110 134.5 110C134.69 110 134.88 110.06 135.03 110.19C135.06 110.22 135.07 110.26 135.1 110.29C135.35 110.53 136.63 111.71 138.93 113.83C138.93 112.76 138.93 112.16 138.93 112.04C138.93 112.04 138.93 112.04 138.93 112.04C138.93 111.67 139.26 111.36 139.67 111.36C139.96 111.36 142.32 111.36 142.62 111.36C142.82 111.36 143.01 111.44 143.14 111.56C143.27 111.69 143.36 111.86 143.36 112.04C143.36 112.44 143.36 114.39 143.36 117.92C147.22 121.49 149.36 123.47 149.79 123.86C150.07 124.12 150.07 124.54 149.79 124.8C149.58 125 149.28 125.05 149.02 124.95ZM140.4 112.73L140.4 115.19L141.88 116.56L141.88 112.73L140.4 112.73ZM124.9 124.32C124.9 125.61 124.9 135.98 124.9 137.27C124.9 138.03 125.57 138.64 126.38 138.64C126.68 138.64 128.15 138.64 130.81 138.64L130.81 138.64C130.81 133.32 130.81 130.36 130.81 129.77C130.81 129.4 131.14 129.09 131.55 129.09C132.14 129.09 136.86 129.09 137.45 129.09C137.86 129.09 138.19 129.4 138.19 129.77C138.19 130.36 138.19 133.32 138.19 138.64L138.19 138.64C140.85 138.64 142.32 138.64 142.62 138.64C143.43 138.64 144.09 138.03 144.09 137.27C144.09 135.98 144.09 125.61 144.09 124.32C144.09 123.94 144.42 123.64 144.83 123.64C145.24 123.64 145.57 123.94 145.57 124.32C145.57 125.61 145.57 135.98 145.57 137.27C145.57 138.78 144.25 140 142.62 140C140.99 140 128 140 126.38 140C124.75 140 123.43 138.78 123.43 137.27C123.43 135.98 123.43 125.61 123.43 124.32C123.43 123.94 123.76 123.64 124.17 123.64C124.57 123.64 124.9 123.94 124.9 124.32ZM136.71 130.45L132.29 130.45L132.29 138.64L132.29 138.64L136.71 138.64L136.71 138.64L136.71 130.45Z" id="H1tmBvA1jF"></path><path d="M179.02 124.95C178.93 124.92 178.84 124.87 178.77 124.8C178.11 124.19 172.83 119.32 172.17 118.71C172.12 118.67 172.08 118.64 172.05 118.59C171.76 118.33 169.5 116.24 169.22 115.98C169.17 115.95 169.13 115.91 169.09 115.87C168.79 115.58 167.26 114.17 164.5 111.62C155.94 119.53 151.18 123.93 150.23 124.8C149.95 125.06 149.49 125.06 149.21 124.8C148.93 124.54 148.93 124.12 149.21 123.86C150.68 122.51 162.43 111.65 163.9 110.29C163.93 110.26 163.94 110.22 163.97 110.19C164.12 110.06 164.31 110 164.5 110C164.69 110 164.88 110.06 165.03 110.19C165.06 110.22 165.07 110.26 165.1 110.29C165.35 110.53 166.63 111.71 168.93 113.83C168.93 112.76 168.93 112.16 168.93 112.04C168.93 112.04 168.93 112.04 168.93 112.04C168.93 111.67 169.26 111.36 169.67 111.36C169.96 111.36 172.32 111.36 172.62 111.36C172.82 111.36 173.01 111.44 173.14 111.56C173.27 111.69 173.36 111.86 173.36 112.04C173.36 112.44 173.36 114.39 173.36 117.92C177.22 121.49 179.36 123.47 179.79 123.86C180.07 124.12 180.07 124.54 179.79 124.8C179.58 125 179.28 125.05 179.02 124.95ZM170.4 112.73L170.4 115.19L171.88 116.56L171.88 112.73L170.4 112.73ZM154.9 124.32C154.9 125.61 154.9 135.98 154.9 137.27C154.9 138.03 155.57 138.64 156.38 138.64C156.68 138.64 158.15 138.64 160.81 138.64L160.81 138.64C160.81 133.32 160.81 130.36 160.81 129.77C160.81 129.4 161.14 129.09 161.55 129.09C162.14 129.09 166.86 129.09 167.45 129.09C167.86 129.09 168.19 129.4 168.19 129.77C168.19 130.36 168.19 133.32 168.19 138.64L168.19 138.64C170.85 138.64 172.32 138.64 172.62 138.64C173.43 138.64 174.09 138.03 174.09 137.27C174.09 135.98 174.09 125.61 174.09 124.32C174.09 123.94 174.42 123.64 174.83 123.64C175.24 123.64 175.57 123.94 175.57 124.32C175.57 125.61 175.57 135.98 175.57 137.27C175.57 138.78 174.25 140 172.62 140C170.99 140 158 140 156.38 140C154.75 140 153.43 138.78 153.43 137.27C153.43 135.98 153.43 125.61 153.43 124.32C153.43 123.94 153.76 123.64 154.17 123.64C154.57 123.64 154.9 123.94 154.9 124.32ZM166.71 130.45L162.29 130.45L162.29 138.64L162.29 138.64L166.71 138.64L166.71 138.64L166.71 130.45Z" id="Uy6uRi0uw7"></path><path d="M164.52 94.95C164.43 94.92 164.34 94.87 164.27 94.8C163.61 94.19 158.33 89.32 157.67 88.71C157.62 88.67 157.58 88.64 157.55 88.59C157.26 88.33 155 86.24 154.72 85.98C154.67 85.95 154.63 85.91 154.59 85.87C154.29 85.58 152.76 84.17 150 81.62C141.44 89.53 136.68 93.93 135.73 94.8C135.45 95.06 134.99 95.06 134.71 94.8C134.43 94.54 134.43 94.12 134.71 93.86C136.18 92.51 147.93 81.65 149.4 80.29C149.43 80.26 149.44 80.22 149.47 80.19C149.62 80.06 149.81 80 150 80C150.19 80 150.38 80.06 150.53 80.19C150.56 80.22 150.57 80.26 150.6 80.29C150.85 80.53 152.13 81.71 154.43 83.83C154.43 82.76 154.43 82.16 154.43 82.04C154.43 82.04 154.43 82.04 154.43 82.04C154.43 81.67 154.76 81.36 155.17 81.36C155.46 81.36 157.82 81.36 158.12 81.36C158.32 81.36 158.51 81.44 158.64 81.56C158.77 81.69 158.86 81.86 158.86 82.04C158.86 82.44 158.86 84.39 158.86 87.92C162.72 91.49 164.86 93.47 165.29 93.86C165.57 94.12 165.57 94.54 165.29 94.8C165.08 95 164.78 95.05 164.52 94.95ZM155.9 82.73L155.9 85.19L157.38 86.56L157.38 82.73L155.9 82.73ZM140.4 94.32C140.4 95.61 140.4 105.98 140.4 107.27C140.4 108.03 141.07 108.64 141.88 108.64C142.18 108.64 143.65 108.64 146.31 108.64L146.31 108.64C146.31 103.32 146.31 100.36 146.31 99.77C146.31 99.4 146.64 99.09 147.05 99.09C147.64 99.09 152.36 99.09 152.95 99.09C153.36 99.09 153.69 99.4 153.69 99.77C153.69 100.36 153.69 103.32 153.69 108.64L153.69 108.64C156.35 108.64 157.82 108.64 158.12 108.64C158.93 108.64 159.59 108.03 159.59 107.27C159.59 105.98 159.59 95.61 159.59 94.32C159.59 93.94 159.92 93.64 160.33 93.64C160.74 93.64 161.07 93.94 161.07 94.32C161.07 95.61 161.07 105.98 161.07 107.27C161.07 108.78 159.75 110 158.12 110C156.49 110 143.5 110 141.88 110C140.25 110 138.93 108.78 138.93 107.27C138.93 105.98 138.93 95.61 138.93 94.32C138.93 93.94 139.26 93.64 139.67 93.64C140.07 93.64 140.4 93.94 140.4 94.32ZM152.21 100.45L147.79 100.45L147.79 108.64L147.79 108.64L152.21 108.64L152.21 108.64L152.21 100.45Z" id="jeGUTSix1r"></path></defs><g visibility="inherit"><g><use xlink:href="#H1tmBvA1jF" opacity="1" fill="#000000" fill-opacity="1"></use><g><use xlink:href="#H1tmBvA1jF" opacity="1" fill-opacity="0" stroke="#000000" stroke-width="1" stroke-opacity="0"></use></g></g><g><use xlink:href="#Uy6uRi0uw7" opacity="1" fill="#000000" fill-opacity="1"></use><g><use xlink:href="#Uy6uRi0uw7" opacity="1" fill-opacity="0" stroke="#000000" stroke-width="1" stroke-opacity="0"></use></g></g><g><use xlink:href="#jeGUTSix1r" opacity="1" fill="#000000" fill-opacity="1"></use><g><use xlink:href="#jeGUTSix1r" opacity="1" fill-opacity="0" stroke="#000000" stroke-width="1" stroke-opacity="0"></use></g></g></g></svg>