<?xml version="1.0" ?><!DOCTYPE svg  PUBLIC '-//W3C//DTD SVG 1.0//EN'  'http://www.w3.org/TR/2001/REC-SVG-20010904/DTD/svg10.dtd'><svg height="65px" style="shape-rendering:geometricPrecision; text-rendering:geometricPrecision; image-rendering:optimizeQuality; fill-rule:evenodd; clip-rule:evenodd" version="1.0" viewBox="0 0 64110 64966" width="64px" xml:space="preserve" xmlns="http://www.w3.org/2000/svg" xmlns:xlink="http://www.w3.org/1999/xlink"><defs><style type="text/css">
   <![CDATA[
    .fil0 {fill:#00000;fill-rule:nonzero}
   ]]>
  </style></defs><g id="Layer_x0020_1"><path class="fil0" d="M35261 0c7961,0 15175,3231 20397,8452l2 -2c5219,5219 8450,12433 8450,20399 0,7966 -3231,15180 -8450,20399l-64 58c-5216,5185 -12402,8390 -20335,8390 -7386,0 -14124,-2778 -19227,-7345l-14321 14321c-391,391 -1029,391 -1420,0 -391,-391 -391,-1029 0,-1420l14291 -14291c-5056,-5197 -8171,-12292 -8171,-20112 0,-7963 3229,-15174 8449,-20394l2 -2 -2 -2c5219,-5219 12433,-8450 20399,-8450zm-14696 44256l76 69 18 19 18 19c2300,2281 5308,3424 8315,3424 1985,0 3969,-497 5750,-1490l21 -13 21 -12 21 -11c910,-514 1765,-1158 2540,-1932l-2 -2 1 -1 52 -49c1485,-1502 2488,-3308 3001,-5217l4 -18 2 -7 6 -24 6 -25 7 -24c256,-979 382,-1984 382,-2989 0,-3022 -1154,-6048 -3459,-8353l-45 -49c-755,-745 -1586,-1370 -2466,-1871l-6 -4 -21 -11 -70 -39c-1780,-990 -3763,-1486 -5744,-1486 -3022,0 -6046,1154 -8351,3459l-1 1 -49 45c-2272,2300 -3411,5302 -3411,8306 0,1005 127,2010 382,2989l7 24 6 25 6 24c511,1907 1505,3713 2985,5220zm-610 2175l-2503 2503c4162,3692 9483,6109 15347,6642 -1062,-683 -2063,-1414 -3003,-2190 -1462,-1210 -2791,-2540 -3975,-3959 -2113,-497 -4132,-1494 -5866,-2996zm-3955 1115l2537 -2537c-1234,-1423 -2127,-3040 -2684,-4743l-4891 0c1273,2704 2982,5162 5038,7280zm12991 -25391c1791,0 3584,348 5267,1042l0 -3759 -12331 0c-562,1779 -959,3605 -1190,5451 2441,-1823 5350,-2734 8254,-2734zm7274 2068c865,537 1683,1178 2437,1923l62 56c2697,2697 4047,6237 4047,9772 0,763 -63,1528 -190,2284l5946 0c984,-3079 1472,-6300 1467,-9516 -4,-3149 -481,-6295 -1433,-9304l-12336 0 0 4785zm5863 16043c-645,1977 -1748,3839 -3309,5418l-56 62 -1 1 -2 -2 -1 1 -1 1c-769,768 -1606,1428 -2492,1978l0 6408c4477,-2781 7865,-6546 10159,-10812 533,-993 1009,-2013 1423,-3055l-5719 0zm-7870 8486c-1683,694 -3476,1042 -5267,1042l-146 -1c698,715 1440,1398 2228,2050 994,821 2056,1588 3184,2290l0 -5380zm-18896 -10494c-127,-756 -190,-1519 -190,-2284 0,-3223 1126,-6454 3374,-9043 142,-2535 572,-5054 1292,-7493l-9720 0c-1096,2928 -1696,6100 -1696,9411 0,3311 601,6481 1696,9410l5244 0zm22391 -36136c4542,2894 8004,6756 10380,11123 735,1351 1365,2751 1893,4185l9534 0c-1330,-2825 -3138,-5380 -5319,-7561l2 -2 -2 -2c-4303,-4304 -10067,-7153 -16488,-7742zm12937 17315c890,3020 1338,6163 1343,9304 5,3210 -453,6427 -1371,9516l9746 0c1096,-2928 1696,-6099 1696,-9410 0,-3311 -600,-6482 -1697,-9411l-9717 0zm-698 20828c-506,1370 -1108,2708 -1804,4003 -2382,4432 -5871,8360 -10464,11308 6404,-582 12163,-3413 16469,-7697l49 -52c2181,-2181 3988,-4737 5319,-7562l-9568 0zm-2104 -22836c-436,-1102 -941,-2182 -1511,-3229 -2290,-4207 -5661,-7914 -10111,-10647l0 13876 11622 0zm-13630 -13875c-3964,2435 -7073,5642 -9321,9288 -903,1465 -1669,3001 -2297,4588l11618 0 0 -13875zm-13758 13875c718,-1955 1631,-3847 2735,-5638 2325,-3771 5506,-7101 9538,-9670 -6418,590 -12184,3440 -16491,7747l-2 -2c-2181,2182 -3988,4737 -5316,7563l9536 0z"/></g></svg>